<svg viewBox="-2 0 32 32" xmlns="http://www.w3.org/2000/svg" fill="#000000"><g id="SVGRepo_bgCarrier" stroke-width="0"></g><g id="SVGRepo_tracerCarrier" stroke-linecap="round" stroke-linejoin="round"></g><g id="SVGRepo_iconCarrier"> <g id="Lager_54" data-name="Lager 54" transform="translate(-2)"> <g id="Group_19" data-name="Group 19"> <path id="Path_62" data-name="Path 62" d="M28,0H6A4,4,0,0,0,2,4V28a4,4,0,0,0,4,4H28a2,2,0,0,0,2-2V2A2,2,0,0,0,28,0ZM26,27a1,1,0,0,1-1,1H7.98A1.979,1.979,0,0,1,6,26.02v-.04A1.979,1.979,0,0,1,7.98,24H25a1,1,0,0,1,1,1Zm0-7.937a1,1,0,0,1-1,1H11a1,1,0,0,1-1-1V5a1,1,0,0,1,1-1H25a1,1,0,0,1,1,1Z" fill="#040505"></path> <rect id="Rectangle_19" data-name="Rectangle 19" width="8" height="4" rx="1" transform="translate(14 8)" fill="#040505"></rect> </g> </g> </g></svg>